<?xml version="1.0" encoding="UTF-8"?>
<!-- Generator: Adobe Illustrator 17.0.0, SVG Export Plug-In . SVG Version: 6.00 Build 0)  -->
<!DOCTYPE svg PUBLIC "-//W3C//DTD SVG 1.1//EN" "http://www.w3.org/Graphics/SVG/1.1/DTD/svg11.dtd">
<svg version="1.1" id="Layer_1" xmlns="http://www.w3.org/2000/svg" xmlns:xlink="http://www.w3.org/1999/xlink" x="0px" y="0px" width="198.689px" height="74.803px" viewBox="0 0 198.689 74.803" enable-background="new 0 0 198.689 74.803" xml:space="preserve">
<g>
	
		<linearGradient id="SVGID_1_" gradientUnits="userSpaceOnUse" x1="-296.846" y1="-520.1969" x2="-296.846" y2="-595" gradientTransform="matrix(1 0 0 -1 332 -520.197)">
		<stop offset="0" style="stop-color:#D7DF23"/>
		<stop offset="0.1996" style="stop-color:#D1DD27"/>
		<stop offset="0.4673" style="stop-color:#C1D82F"/>
		<stop offset="0.7722" style="stop-color:#A6CE39"/>
		<stop offset="1" style="stop-color:#8DC63F"/>
	</linearGradient>
	<path fill="url(#SVGID_1_)" d="M38.616,74.803c12.037-10.62,13.61-17.838,6.148-31.397c-3.974-7.221-9.139-13.787-14.285-21.417   C21.04,32.174,13.108,42.034,10.65,55.079c-1.466,7.778,1.87,15.163,9.069,19.724C9.365,74.441,0.657,63.005,0.059,51.936   c-0.71-13.147,5.092-23.802,12.617-33.791c2.698-3.582,6.081-6.65,8.742-10.255c5.887-7.976,13.952-8.812,22.707-7.229   C54.614,2.558,64.506,5.685,70.28,15.807c0.046,0.081-0.112,0.279,0.028-0.041c-5.001-2.867-9.802-6.342-15.138-8.477   c-5.351-2.14-11.223-2.126-16.806-0.333c4.931,6.67,9.965,12.852,14.288,19.497c4.684,7.199,7.271,15.175,7.026,24.003   C59.327,63.145,52.868,71.076,38.616,74.803z"/>
	<circle fill="#414042" cx="31.165" cy="9.627" r="2.101"/>
	<g>
		<path fill="#414042" stroke="#414042" stroke-miterlimit="10" d="M101.369,53.906h5.865v0.899h-4.966v2.938h3.683v0.899h-3.683    v3.838h-0.899C101.369,62.48,101.369,53.906,101.369,53.906z"/>
		<path fill="#414042" stroke="#414042" stroke-miterlimit="10" d="M120.674,53.906l3.766,8.575h-0.971l-1.164-2.65h-3.946    l-1.163,2.65h-0.972l3.766-8.575H120.674z M121.91,58.943l-1.572-3.586l-1.582,3.586H121.91z"/>
		<path fill="#414042" stroke="#414042" stroke-miterlimit="10" d="M135.687,58.643l4.33,3.838h-1.332l-4.078-3.634v3.634h-0.898    v-8.575h3.394c1.296,0,2.351,1.067,2.351,2.362c0,1.308-1.055,2.375-2.351,2.375H135.687z M134.607,57.744h2.495    c0.804,0,1.464-0.659,1.464-1.476c0-0.803-0.66-1.463-1.464-1.463h-2.495V57.744z"/>
		<path fill="#414042" stroke="#414042" stroke-miterlimit="10" d="M157.535,53.906v8.575h-0.898v-6.188l-2.915,6.188h-0.659    l-2.879-6.177v6.177h-0.899v-8.575h0.768l3.347,7.16l3.357-7.16C156.757,53.906,157.535,53.906,157.535,53.906z"/>
		<path fill="#414042" stroke="#414042" stroke-miterlimit="10" d="M173.076,60.118c0,1.308-1.247,2.363-2.771,2.363h-0.731    c-1.523,0-2.771-1.056-2.771-2.363c0-0.012,0-0.023,0-0.047l0.013-0.336h0.935l-0.012,0.383c-0.024,0.805,0.827,1.464,1.835,1.464    h0.731c1.008,0,1.835-0.659,1.835-1.464c0-0.814-0.827-1.475-1.835-1.475h-0.024c-0.023,0-0.071,0-0.119,0h-0.192    c-0.491-0.023-1.151-0.084-1.511-0.3c-0.947-0.552-1.403-1.224-1.403-2.075c0-1.295,1.247-2.362,2.771-2.362h0.216    c1.476,0,2.698,0.983,2.771,2.243l0.023,0.359h-0.936l-0.023-0.324c-0.061-0.779-0.863-1.379-1.835-1.379h-0.216    c-1.008,0-1.823,0.66-1.823,1.463c0,0.792,0.768,1.451,1.728,1.476h0.06h0.024h0.359v0.012c0.408,0.013,0.611,0.024,0.623,0.036    h0.037C172.14,57.948,173.076,58.979,173.076,60.118z"/>
	</g>
	<g>
		<path fill="#414042" d="M90.892,29.602l13.101,13.023c2.149,2.149,3.983,3.612,5.503,4.389s3.039,1.218,4.559,1.323v0.969H97.154    v-0.969c1.013,0,1.742-0.17,2.188-0.511s0.668-0.721,0.668-1.14s-0.083-0.795-0.249-1.127s-0.712-0.952-1.638-1.86L85.861,31.567    v11.45c0,1.799,0.114,2.987,0.341,3.564c0.175,0.437,0.542,0.812,1.101,1.127c0.751,0.419,1.546,0.629,2.384,0.629h1.205v0.969    H75.747v-0.969h1.258c1.467,0,2.533-0.428,3.197-1.284c0.419-0.559,0.629-1.904,0.629-4.035V20.065    c0-1.799-0.114-2.996-0.341-3.59c-0.175-0.419-0.533-0.786-1.074-1.101c-0.769-0.419-1.572-0.629-2.411-0.629h-1.258v-0.969    h15.145v0.969h-1.205c-0.821,0-1.616,0.201-2.384,0.603c-0.542,0.279-0.917,0.699-1.127,1.258    c-0.21,0.559-0.314,1.712-0.314,3.459v10.874c0.349-0.332,1.546-1.441,3.59-3.328c5.188-4.751,8.324-7.922,9.407-9.511    c0.472-0.699,0.707-1.31,0.707-1.834c0-0.402-0.183-0.756-0.55-1.061c-0.367-0.306-0.987-0.459-1.86-0.459h-0.812v-0.969h13.049    v0.969c-0.769,0.017-1.467,0.122-2.096,0.314s-1.397,0.563-2.306,1.114c-0.908,0.55-2.026,1.437-3.354,2.66    c-0.384,0.349-2.157,2.14-5.319,5.371L90.892,29.602z"/>
		<path fill="#414042" d="M130.17,48.337v0.969h-15.224v-0.969h1.258c1.467,0,2.533-0.428,3.197-1.284    c0.419-0.559,0.629-1.904,0.629-4.035V20.065c0-1.799-0.114-2.987-0.341-3.564c-0.175-0.437-0.533-0.812-1.074-1.127    c-0.769-0.419-1.572-0.629-2.411-0.629h-1.258v-0.969h15.224v0.969h-1.284c-1.45,0-2.507,0.428-3.17,1.284    c-0.437,0.559-0.655,1.904-0.655,4.035v22.953c0,1.799,0.114,2.987,0.341,3.564c0.175,0.437,0.542,0.812,1.101,1.127    c0.751,0.419,1.546,0.629,2.384,0.629H130.17z"/>
		<path fill="#414042" d="M181.71,13.776v0.969c-0.926,0-1.677,0.166-2.253,0.498s-1.127,0.952-1.651,1.86    c-0.349,0.611-0.9,2.07-1.651,4.376l-9.905,28.639h-1.048l-8.096-22.717l-8.044,22.718h-0.943l-10.56-29.504    c-0.786-2.201-1.284-3.502-1.494-3.904c-0.349-0.664-0.825-1.157-1.428-1.48c-0.603-0.323-1.419-0.485-2.45-0.485v-0.969h13.154    v0.969h-0.629c-0.926,0-1.633,0.21-2.122,0.629c-0.489,0.419-0.734,0.926-0.734,1.52c0,0.611,0.384,2.018,1.153,4.219l6.996,19.94    l5.896-16.953l-1.048-2.987l-0.838-2.384c-0.367-0.873-0.777-1.642-1.232-2.306c-0.227-0.332-0.507-0.611-0.838-0.838    c-0.437-0.314-0.873-0.542-1.31-0.681c-0.332-0.105-0.856-0.157-1.572-0.157v-0.969h13.835v0.969h-0.943    c-0.978,0-1.694,0.21-2.149,0.629s-0.681,0.987-0.681,1.703c0,0.891,0.393,2.446,1.179,4.664l6.813,19.311l6.76-19.573    c0.769-2.166,1.153-3.668,1.153-4.507c0-0.402-0.127-0.777-0.38-1.127c-0.253-0.349-0.572-0.594-0.956-0.734    c-0.664-0.245-1.528-0.367-2.594-0.367v-0.969h10.61L181.71,13.776L181.71,13.776z"/>
		<path fill="#414042" d="M198.689,48.337v0.969h-15.224v-0.969h1.258c1.467,0,2.533-0.428,3.197-1.284    c0.419-0.559,0.629-1.904,0.629-4.035V20.065c0-1.799-0.114-2.987-0.341-3.564c-0.175-0.437-0.533-0.812-1.074-1.127    c-0.769-0.419-1.572-0.629-2.411-0.629h-1.258v-0.969h15.224v0.969h-1.284c-1.45,0-2.507,0.428-3.171,1.284    c-0.437,0.559-0.655,1.904-0.655,4.035v22.953c0,1.799,0.114,2.987,0.341,3.564c0.175,0.437,0.542,0.812,1.1,1.127    c0.751,0.419,1.546,0.629,2.384,0.629H198.689z"/>
	</g>
</g>
</svg>